<svg width="18" height="17" viewBox="0 0 18 17" fill="none" xmlns="http://www.w3.org/2000/svg">
<path d="M12.2706 4.09375C13.0465 4.09375 13.6754 3.49213 13.6754 2.75C13.6754 2.00787 13.0465 1.40625 12.2706 1.40625C11.4947 1.40625 10.8658 2.00787 10.8658 2.75C10.8658 3.49213 11.4947 4.09375 12.2706 4.09375Z" fill="#1D2E5B"/>
<path d="M11.4116 7.43234C11.5728 7.66217 11.8041 7.83897 12.074 7.93874C12.344 8.0385 12.6394 8.0564 12.9204 7.98999L15.2496 7.43301L14.9103 6.12957L12.5811 6.68656L11.6125 5.29779C11.4055 5.0012 11.0843 4.79494 10.719 4.72401L8.01751 4.20666C7.71529 4.14865 7.40151 4.18742 7.12463 4.31699C6.84774 4.44656 6.62315 4.65972 6.48555 4.92356L5.32094 7.15149L6.57756 7.75282L7.74217 5.52421L9.12382 5.78893L5.55134 11.4844H2.43683V12.8282H5.55134C6.04162 12.8282 6.50311 12.5782 6.75598 12.1758L8.10321 10.0285L11.734 10.7232L13.0096 14.3842L14.3414 13.9589L13.0665 10.2986C12.9878 10.0738 12.8486 9.8729 12.6629 9.71603C12.4772 9.55915 12.2515 9.45186 12.0086 9.40496L9.874 8.99713L11.1187 7.01241L11.4116 7.43234V7.43234Z" fill="#1D2E5B"/>
</svg>
