<svg width="18" height="17" viewBox="0 0 18 17" fill="none" xmlns="http://www.w3.org/2000/svg">
<g clip-path="url(#clip0_21589_1030)">
<path d="M13.9146 0.927756C13.3249 1.06 12.7325 1.19287 12.5121 1.55694L10.8065 4.76256L1.64828 6.8164L1.27723 7.84065L8.28531 8.46574L7.09628 11.2408L4.43851 11.8369L3.77123 12.9276L5.68861 13.1239L5.90725 14.016C6.00521 14.3322 6.34902 14.5433 6.64248 14.4774L7.5284 14.2788L8.55537 15.9305L9.22266 14.8399L8.56673 12.1638L10.491 9.85023L14.1627 15.9287L14.9031 15.1363L12.6435 5.918L14.7185 2.94422C14.9416 2.57952 14.7961 1.98578 14.6499 1.38925C14.5774 1.09377 14.2081 0.861944 13.9146 0.927756Z" fill="#1D2E5B"/>
</g>
<defs>
<clipPath id="clip0_21589_1030">
<rect width="16.858" height="16.125" fill="white" transform="translate(0.329559 0.0625)"/>
</clipPath>
</defs>
</svg>
